<svg width="62" height="62" viewBox="0 0 62 62" fill="none" xmlns="http://www.w3.org/2000/svg">
<rect width="62" height="62" rx="31" fill="#C4E1F8"/>
<path d="M20.5566 20.6961H41.3109C41.9915 20.6961 42.5415 20.1448 42.5415 19.4655V19.3152C42.5415 18.6346 41.9915 18.0833 41.3109 18.0833H20.5566C19.8773 18.0833 19.326 18.6346 19.326 19.3152V19.4655C19.326 20.1448 19.8773 20.6961 20.5566 20.6961Z" fill="#0F71D0"/>
<path fill-rule="evenodd" clip-rule="evenodd" d="M41.8234 22.9286C42.3577 22.9286 42.8084 23.3245 42.8776 23.8549L43.9084 31.7728C43.9907 32.409 43.4955 32.9733 42.8528 32.9733H41.8848V42.1035C41.8848 42.7842 41.3335 43.3367 40.6542 43.3367H40.5053C39.8246 43.3367 39.272 42.7842 39.272 42.1035V32.9733H35.0943V40.7371C35.0943 42.1702 33.9277 43.3367 32.4959 43.3367H22.2566C20.8235 43.3367 19.6582 42.1702 19.6582 40.7371V32.9733H19.1474C18.506 32.9733 18.0096 32.409 18.0932 31.7728L19.1226 23.8549C19.1918 23.3245 19.6425 22.9286 20.1769 22.9286H41.8234ZM40.4622 25.5414H21.5381L20.911 30.3606H41.0892L40.4622 25.5414ZM22.271 40.7371L32.4802 40.724V33.1H22.271V40.7371Z" fill="#0F71D0"/>
</svg>
